<mxfile host="Electron" modified="2023-12-21T08:35:20.160Z" agent="Mozilla/5.0 (Macintosh; Intel Mac OS X 10_15_7) AppleWebKit/537.36 (KHTML, like Gecko) draw.io/21.6.1 Chrome/112.0.5615.204 Electron/24.6.1 Safari/537.36" etag="q6z9lXL8T68fyxmgXXWG" version="21.6.1" type="device">
  <diagram name="Page-1" id="AiGyBGulJlG2b5ema_YY">
    <mxGraphModel dx="1114" dy="589" grid="1" gridSize="10" guides="1" tooltips="1" connect="1" arrows="1" fold="1" page="1" pageScale="1" pageWidth="1169" pageHeight="827" math="0" shadow="0">
      <root>
        <mxCell id="0" />
        <mxCell id="1" parent="0" />
        <mxCell id="sqSzUqU304LLiPSm21EO-1" value="" style="ellipse;whiteSpace=wrap;html=1;aspect=fixed;" vertex="1" parent="1">
          <mxGeometry x="530" y="270" width="280" height="280" as="geometry" />
        </mxCell>
        <mxCell id="sqSzUqU304LLiPSm21EO-2" value="Artificial Intelligence" style="text;html=1;strokeColor=none;fillColor=none;align=center;verticalAlign=middle;whiteSpace=wrap;rounded=0;" vertex="1" parent="1">
          <mxGeometry x="620" y="290" width="110" height="30" as="geometry" />
        </mxCell>
        <mxCell id="sqSzUqU304LLiPSm21EO-3" value="" style="ellipse;whiteSpace=wrap;html=1;aspect=fixed;" vertex="1" parent="1">
          <mxGeometry x="560" y="330" width="220" height="220" as="geometry" />
        </mxCell>
        <mxCell id="sqSzUqU304LLiPSm21EO-4" value="Machine Learning" style="text;html=1;strokeColor=none;fillColor=none;align=center;verticalAlign=middle;whiteSpace=wrap;rounded=0;" vertex="1" parent="1">
          <mxGeometry x="620" y="340" width="110" height="30" as="geometry" />
        </mxCell>
        <mxCell id="sqSzUqU304LLiPSm21EO-5" value="" style="ellipse;whiteSpace=wrap;html=1;aspect=fixed;" vertex="1" parent="1">
          <mxGeometry x="595" y="400" width="150" height="150" as="geometry" />
        </mxCell>
        <mxCell id="sqSzUqU304LLiPSm21EO-6" value="&lt;b&gt;Supervised + Unsupervised&lt;/b&gt;" style="text;html=1;strokeColor=none;fillColor=none;align=center;verticalAlign=middle;whiteSpace=wrap;rounded=0;" vertex="1" parent="1">
          <mxGeometry x="580" y="370" width="190" height="30" as="geometry" />
        </mxCell>
        <mxCell id="sqSzUqU304LLiPSm21EO-7" value="Deep Learning" style="text;html=1;strokeColor=none;fillColor=none;align=center;verticalAlign=middle;whiteSpace=wrap;rounded=0;" vertex="1" parent="1">
          <mxGeometry x="620" y="414" width="110" height="30" as="geometry" />
        </mxCell>
        <mxCell id="sqSzUqU304LLiPSm21EO-8" value="Gen AI" style="ellipse;whiteSpace=wrap;html=1;aspect=fixed;" vertex="1" parent="1">
          <mxGeometry x="625" y="460" width="90" height="90" as="geometry" />
        </mxCell>
        <mxCell id="sqSzUqU304LLiPSm21EO-9" value="LLMs" style="rounded=1;whiteSpace=wrap;html=1;" vertex="1" parent="1">
          <mxGeometry x="610" y="465" width="50" height="20" as="geometry" />
        </mxCell>
      </root>
    </mxGraphModel>
  </diagram>
</mxfile>
